<mxfile host="app.diagrams.net" agent="Mozilla/5.0 (Windows NT 10.0; Win64; x64; rv:143.0) Gecko/20100101 Firefox/143.0" version="28.2.5">
  <diagram name="Page-1" id="LpUMVsQY9l0pyGXGxM5m">
    <mxGraphModel dx="1426" dy="759" grid="1" gridSize="10" guides="1" tooltips="1" connect="1" arrows="1" fold="1" page="1" pageScale="1" pageWidth="827" pageHeight="1169" math="0" shadow="0">
      <root>
        <mxCell id="0" />
        <mxCell id="1" parent="0" />
        <mxCell id="hkNuHsQ6T6VPSXDFxKWd-40" value="" style="whiteSpace=wrap;strokeWidth=2;fillColor=#cce5ff;strokeColor=#36393d;" parent="1" vertex="1">
          <mxGeometry x="10" y="640" width="560" height="110" as="geometry" />
        </mxCell>
        <mxCell id="hkNuHsQ6T6VPSXDFxKWd-1" value="" style="whiteSpace=wrap;strokeWidth=2;fillColor=#ffff88;strokeColor=#36393d;" parent="1" vertex="1">
          <mxGeometry x="10" y="344" width="560" height="276" as="geometry" />
        </mxCell>
        <mxCell id="hkNuHsQ6T6VPSXDFxKWd-2" value="" style="whiteSpace=wrap;strokeWidth=2;fillColor=default;" parent="1" vertex="1">
          <mxGeometry x="260" y="388" width="290" height="212" as="geometry" />
        </mxCell>
        <mxCell id="hkNuHsQ6T6VPSXDFxKWd-4" value="" style="whiteSpace=wrap;strokeWidth=2;fillColor=#cdeb8b;strokeColor=#36393d;" parent="1" vertex="1">
          <mxGeometry x="10" y="150" width="560" height="140" as="geometry" />
        </mxCell>
        <mxCell id="hkNuHsQ6T6VPSXDFxKWd-5" value="国铁集团（全路）调度处" style="whiteSpace=wrap;strokeWidth=2;strokeColor=none;fillColor=none;fontSize=17;" parent="1" vertex="1">
          <mxGeometry x="161" y="150" width="228" height="40" as="geometry" />
        </mxCell>
        <mxCell id="hkNuHsQ6T6VPSXDFxKWd-6" value="TDMS&#xa;运输调度管理系统" style="whiteSpace=wrap;strokeWidth=2;" parent="1" vertex="1">
          <mxGeometry x="60" y="200" width="150" height="54" as="geometry" />
        </mxCell>
        <mxCell id="hkNuHsQ6T6VPSXDFxKWd-7" value="TDCS/CTS&#xa;普速、高速铁路调度指挥系统" style="whiteSpace=wrap;strokeWidth=2;" parent="1" vertex="1">
          <mxGeometry x="294" y="200" width="220" height="54" as="geometry" />
        </mxCell>
        <mxCell id="hkNuHsQ6T6VPSXDFxKWd-8" value="铁路局调度所" style="whiteSpace=wrap;strokeWidth=2;strokeColor=none;fontSize=20;fillColor=none;" parent="1" vertex="1">
          <mxGeometry x="130" y="350" width="290" height="30" as="geometry" />
        </mxCell>
        <mxCell id="hkNuHsQ6T6VPSXDFxKWd-13" value="自律机、车站值班员" style="whiteSpace=wrap;strokeWidth=2;" parent="1" vertex="1">
          <mxGeometry x="349" y="678" width="156" height="54" as="geometry" />
        </mxCell>
        <mxCell id="hkNuHsQ6T6VPSXDFxKWd-14" value="基层站段信息" style="whiteSpace=wrap;strokeWidth=2;" parent="1" vertex="1">
          <mxGeometry x="40" y="678" width="188" height="54" as="geometry" />
        </mxCell>
        <mxCell id="hkNuHsQ6T6VPSXDFxKWd-15" value="" style="curved=1;startArrow=block;endArrow=block;exitX=0.441;exitY=0.979;entryX=0.5;entryY=0;rounded=0;exitDx=0;exitDy=0;exitPerimeter=0;strokeWidth=1;shape=flexArrow;width=9.319727891156463;startSize=2.438775510204082;startWidth=16.07353685275763;" parent="1" source="hkNuHsQ6T6VPSXDFxKWd-6" target="hkNuHsQ6T6VPSXDFxKWd-9" edge="1">
          <mxGeometry relative="1" as="geometry">
            <Array as="points" />
          </mxGeometry>
        </mxCell>
        <mxCell id="hkNuHsQ6T6VPSXDFxKWd-16" value="" style="curved=1;startArrow=none;endArrow=classicThin;exitX=0.889;exitY=1.028;entryX=0.403;entryY=-0.014;rounded=0;exitDx=0;exitDy=0;exitPerimeter=0;entryDx=0;entryDy=0;entryPerimeter=0;endFill=1;strokeWidth=2;" parent="1" source="hkNuHsQ6T6VPSXDFxKWd-6" target="hkNuHsQ6T6VPSXDFxKWd-2" edge="1">
          <mxGeometry relative="1" as="geometry">
            <Array as="points" />
          </mxGeometry>
        </mxCell>
        <mxCell id="hkNuHsQ6T6VPSXDFxKWd-17" value="" style="curved=1;startArrow=none;endArrow=classic;exitX=1;exitY=0.5;rounded=0;exitDx=0;exitDy=0;endFill=1;" parent="1" source="hkNuHsQ6T6VPSXDFxKWd-6" target="hkNuHsQ6T6VPSXDFxKWd-7" edge="1">
          <mxGeometry relative="1" as="geometry">
            <Array as="points" />
          </mxGeometry>
        </mxCell>
        <mxCell id="hkNuHsQ6T6VPSXDFxKWd-22" value="" style="curved=1;startArrow=none;endArrow=block;exitX=0.5;exitY=1;entryX=0.5;entryY=0;rounded=0;entryDx=0;entryDy=0;" parent="1" source="hkNuHsQ6T6VPSXDFxKWd-12" target="hkNuHsQ6T6VPSXDFxKWd-13" edge="1">
          <mxGeometry relative="1" as="geometry">
            <Array as="points" />
          </mxGeometry>
        </mxCell>
        <mxCell id="hkNuHsQ6T6VPSXDFxKWd-11" value="（日班）计划调度" style="whiteSpace=wrap;strokeWidth=2;" parent="1" vertex="1">
          <mxGeometry x="304" y="417" width="220" height="50" as="geometry" />
        </mxCell>
        <mxCell id="hkNuHsQ6T6VPSXDFxKWd-30" value="" style="curved=1;startArrow=block;endArrow=block;entryX=0.948;entryY=1.1;rounded=0;strokeWidth=1;shape=flexArrow;width=9.319727891156463;startSize=2.438775510204082;startWidth=16.07353685275763;entryDx=0;entryDy=0;entryPerimeter=0;" parent="1" source="hkNuHsQ6T6VPSXDFxKWd-7" target="hkNuHsQ6T6VPSXDFxKWd-8" edge="1">
          <mxGeometry relative="1" as="geometry">
            <Array as="points" />
            <mxPoint x="170" y="250" as="sourcePoint" />
            <mxPoint x="218" y="513" as="targetPoint" />
          </mxGeometry>
        </mxCell>
        <mxCell id="hkNuHsQ6T6VPSXDFxKWd-34" value="" style="group" parent="1" vertex="1" connectable="0">
          <mxGeometry x="294" y="522" width="240" height="49" as="geometry" />
        </mxCell>
        <mxCell id="hkNuHsQ6T6VPSXDFxKWd-12" value="行车调度" style="whiteSpace=wrap;strokeWidth=2;" parent="hkNuHsQ6T6VPSXDFxKWd-34" vertex="1">
          <mxGeometry y="9" width="60" height="40" as="geometry" />
        </mxCell>
        <mxCell id="hkNuHsQ6T6VPSXDFxKWd-31" value="电力调度" style="whiteSpace=wrap;strokeWidth=2;" parent="hkNuHsQ6T6VPSXDFxKWd-34" vertex="1">
          <mxGeometry x="73" y="9" width="60" height="40" as="geometry" />
        </mxCell>
        <mxCell id="hkNuHsQ6T6VPSXDFxKWd-32" value="综合调度" style="whiteSpace=wrap;strokeWidth=2;" parent="hkNuHsQ6T6VPSXDFxKWd-34" vertex="1">
          <mxGeometry x="180" y="9" width="60" height="40" as="geometry" />
        </mxCell>
        <mxCell id="hkNuHsQ6T6VPSXDFxKWd-33" value="..." style="whiteSpace=wrap;strokeWidth=2;strokeColor=none;fontSize=42;fillColor=none;" parent="hkNuHsQ6T6VPSXDFxKWd-34" vertex="1">
          <mxGeometry x="120" width="70" height="30" as="geometry" />
        </mxCell>
        <mxCell id="hkNuHsQ6T6VPSXDFxKWd-36" value="" style="endArrow=classic;html=1;rounded=0;exitX=0.471;exitY=1.006;exitDx=0;exitDy=0;exitPerimeter=0;entryX=0.5;entryY=0;entryDx=0;entryDy=0;" parent="1" source="hkNuHsQ6T6VPSXDFxKWd-11" target="hkNuHsQ6T6VPSXDFxKWd-12" edge="1">
          <mxGeometry width="50" height="50" relative="1" as="geometry">
            <mxPoint x="514" y="552" as="sourcePoint" />
            <mxPoint x="564" y="502" as="targetPoint" />
          </mxGeometry>
        </mxCell>
        <mxCell id="hkNuHsQ6T6VPSXDFxKWd-37" value="" style="endArrow=classic;html=1;rounded=0;entryX=0.5;entryY=0;entryDx=0;entryDy=0;" parent="1" source="hkNuHsQ6T6VPSXDFxKWd-11" target="hkNuHsQ6T6VPSXDFxKWd-31" edge="1">
          <mxGeometry width="50" height="50" relative="1" as="geometry">
            <mxPoint x="404" y="462" as="sourcePoint" />
            <mxPoint x="374" y="556" as="targetPoint" />
          </mxGeometry>
        </mxCell>
        <mxCell id="hkNuHsQ6T6VPSXDFxKWd-38" value="" style="endArrow=classic;html=1;rounded=0;exitX=0.471;exitY=0.945;exitDx=0;exitDy=0;exitPerimeter=0;entryX=0.554;entryY=-0.026;entryDx=0;entryDy=0;entryPerimeter=0;" parent="1" source="hkNuHsQ6T6VPSXDFxKWd-11" target="hkNuHsQ6T6VPSXDFxKWd-32" edge="1">
          <mxGeometry width="50" height="50" relative="1" as="geometry">
            <mxPoint x="461" y="632" as="sourcePoint" />
            <mxPoint x="454" y="701" as="targetPoint" />
          </mxGeometry>
        </mxCell>
        <mxCell id="hkNuHsQ6T6VPSXDFxKWd-39" value="" style="group" parent="1" vertex="1" connectable="0">
          <mxGeometry x="40" y="390" width="170" height="208" as="geometry" />
        </mxCell>
        <mxCell id="hkNuHsQ6T6VPSXDFxKWd-3" value="" style="whiteSpace=wrap;strokeWidth=2;" parent="hkNuHsQ6T6VPSXDFxKWd-39" vertex="1">
          <mxGeometry width="170" height="208" as="geometry" />
        </mxCell>
        <mxCell id="hkNuHsQ6T6VPSXDFxKWd-9" value="路局TDMS" style="whiteSpace=wrap;strokeWidth=2;" parent="hkNuHsQ6T6VPSXDFxKWd-39" vertex="1">
          <mxGeometry x="15" y="40" width="140" height="39" as="geometry" />
        </mxCell>
        <mxCell id="hkNuHsQ6T6VPSXDFxKWd-10" value="信息收集&#xa;（客流，线路，设备）" style="whiteSpace=wrap;strokeWidth=2;" parent="hkNuHsQ6T6VPSXDFxKWd-39" vertex="1">
          <mxGeometry x="15" y="129" width="140" height="54" as="geometry" />
        </mxCell>
        <mxCell id="hkNuHsQ6T6VPSXDFxKWd-19" value="" style="startArrow=classic;endArrow=block;exitX=0.5;exitY=1;entryX=0.5;entryY=0;rounded=0;strokeWidth=2;startFill=1;" parent="hkNuHsQ6T6VPSXDFxKWd-39" source="hkNuHsQ6T6VPSXDFxKWd-9" target="hkNuHsQ6T6VPSXDFxKWd-10" edge="1">
          <mxGeometry relative="1" as="geometry" />
        </mxCell>
        <mxCell id="hkNuHsQ6T6VPSXDFxKWd-41" value="基层站段调度室" style="whiteSpace=wrap;strokeWidth=2;strokeColor=none;fontSize=20;fillColor=none;" parent="1" vertex="1">
          <mxGeometry x="124" y="640" width="290" height="30" as="geometry" />
        </mxCell>
        <mxCell id="hkNuHsQ6T6VPSXDFxKWd-42" value="" style="curved=1;startArrow=none;endArrow=block;exitX=0.5;exitY=1;rounded=0;exitDx=0;exitDy=0;" parent="1" source="hkNuHsQ6T6VPSXDFxKWd-31" edge="1">
          <mxGeometry relative="1" as="geometry">
            <Array as="points" />
            <mxPoint x="520" y="680" as="sourcePoint" />
            <mxPoint x="430" y="700" as="targetPoint" />
          </mxGeometry>
        </mxCell>
        <mxCell id="hkNuHsQ6T6VPSXDFxKWd-43" value="" style="curved=1;startArrow=none;endArrow=block;exitX=0.567;exitY=1.183;rounded=0;exitDx=0;exitDy=0;exitPerimeter=0;" parent="1" source="hkNuHsQ6T6VPSXDFxKWd-32" target="hkNuHsQ6T6VPSXDFxKWd-13" edge="1">
          <mxGeometry relative="1" as="geometry">
            <Array as="points" />
            <mxPoint x="460" y="670" as="sourcePoint" />
            <mxPoint x="494" y="793" as="targetPoint" />
          </mxGeometry>
        </mxCell>
        <mxCell id="hkNuHsQ6T6VPSXDFxKWd-45" value="" style="curved=1;startArrow=none;endArrow=block;rounded=0;" parent="1" source="hkNuHsQ6T6VPSXDFxKWd-14" target="hkNuHsQ6T6VPSXDFxKWd-3" edge="1">
          <mxGeometry relative="1" as="geometry">
            <Array as="points" />
            <mxPoint x="525" y="670" as="sourcePoint" />
            <mxPoint x="460" y="792" as="targetPoint" />
          </mxGeometry>
        </mxCell>
      </root>
    </mxGraphModel>
  </diagram>
</mxfile>
